<svg version="1.2" xmlns="http://www.w3.org/2000/svg" viewBox="0 0 1665 236" width="1665" height="236">
	<title>Brand_Mark_Full_Color_TM-svg</title>
	<style>
		.s0 { fill: #59bec9 } 
		.s1 { fill: #13294b } 
	</style>
	<path id="Layer" fill-rule="evenodd" class="s0" d="m118.5 235.5c-65 0-117.5-52.5-117.5-117.5 0-65 52.5-117.5 117.5-117.5 64.9 0 117.4 52.5 117.4 117.5 0 65-52.5 117.5-117.4 117.5zm31.5-61l-64-118.8c-5.8-10.5-18.8-14.2-29-8.7l-1.5 1c-10.5 5.7-14.3 18.7-8.8 29l64 119c5.8 10.5 18.8 14.2 29 8.7l1.5-1c10.3-5.7 14.3-18.5 8.8-29.2zm38.2-74.8c-13.8-25.5-45.5-35-71-21.2l49.7 92.3c25.5-13.8 35-45.6 21.3-71.1z"/>
	<path id="Layer" fill-rule="evenodd" class="s1" d="m1601.3 46.5h13v144.3l-13-0.1zm-660.3 3.5v12.5c-19.3-1.5-28.5 6.3-28.3 25.3v4h28.5v12.5h-28.5v86.3h-13v-86.1h-16.7v-12.5h16.7v-4c-0.2-25.7 14.5-40 41.3-38zm-610.6 53.5c7.2-9 17.5-14.2 32-14.2 26.5 0 48.2 22.7 48.2 52 0 29.2-21.7 52.2-48.2 52.2-14.3 0-24.8-5.2-32-14.2v11.5h-25.5v-138.3h25.5zm54.7 37.8c0-15.3-12.2-27.8-27.3-27.8-15.2 0-27.4 12.5-27.4 27.8 0 15.3 12.2 27.7 27.4 27.7 15.1 0 27.3-12.4 27.3-27.7zm66.3-49.5v17c5-13.5 17.5-19 30-19v28.5c-13.3-1.8-30 4.2-30 25v47.2h-25.3v-98.7zm94 78.3c9.7-0.1 17.5-4.1 22-9.8l20.5 11.7c-9.3 13.3-24 21.1-43 21.1-33-0.1-54-22.6-54-52.1 0-29.2 21-52 52-52 29.2 0 50 23.1 50 52 0 3.8-0.5 7-1 10.5h-74.2c3.7 13 14.4 18.8 27.7 18.6zm22.2-38.3c-3.2-14.3-13.7-20-24.5-20-13.5 0-22.7 7.5-25.7 20zm117.2-28.3v-11.5h25.5v98.5h-25.5v-11.5c-7.2 9-17.7 14.3-32.2 14.3-26.3 0-48-22.5-48-52 0-29.2 21.7-52 48-52 14.5-0.3 25 5.2 32.2 14.2zm0.3 37.8c0-15.3-12.3-27.8-27.4-27.8-15.1 0-27.4 12.5-27.4 27.8 0 15.3 12.3 27.8 27.4 27.8 15.1-0.1 27.4-12.5 27.4-27.8zm144.9-88.8v138h-25.5v-11.5c-7.2 9-17.7 14.3-32 14.3-26.5 0-48.2-22.5-48.2-52 0-29.3 21.7-52 48.2-52 14.5 0 24.8 5.2 32 14.2v-51zm-25.5 88.8c0-15.3-12.2-27.8-27.3-27.8-15.2 0-27.4 12.5-27.4 27.8 0 15.3 12.2 27.8 27.4 27.8 15.1-0.1 27.3-12.5 27.3-27.8zm159.2-70.3c-5.2 0-9.5-4.2-9.5-9.5 0-5.2 4.3-9.5 9.5-9.5 5.3 0 9.5 4.3 9.5 9.5 0 5.3-4.2 9.5-9.5 9.5zm-6.5 20.8h13v99h-13zm52 15.5c7.8-12.5 19-17.8 33-17.8 24 0 38.5 15.8 38.5 40.5v60.5h-13v-60.5c0-17.5-9.7-27.7-26.7-27.7-17.3 0-32 10.2-32 36.7v51.6h-13v-98.8h13v15.5zm191.4-15.5v98.5h-13v-19.3c-8.2 13.3-22.2 21.8-39.7 21.8-28 0-51-22.5-51-51.8 0-29.2 23.2-51.7 51-51.7 17.5 0 31.5 8.5 39.7 21.7v-19.2zm-13 49.5c0-21.6-17.3-39-38.7-39-21.4 0-38.7 17.4-38.7 39 0 21.6 17.3 39 38.7 39 21.4 0 38.7-17.4 38.7-39zm49.8-34c7.7-12.5 19-17.8 33-17.8 23.9 0 38.7 15.8 38.4 40.5v60.5h-13v-60.5c0-17.5-9.7-27.7-26.7-27.7-17.2 0-32 10.2-32 36.7v51.6h-13v-98.8h13zm89.5 34c0-29.3 22-51.8 51.7-51.8 19.5 0 36 10.3 43.3 25.8l-10.8 6.2c-5.2-11.5-17.7-19.2-32.5-19.2-21.7 0-38.7 17-38.7 39 0 22 17 39 38.7 39 15 0 27-7.8 33.3-19.3l10.7 6.3c-8.2 15.7-25 25.7-44.2 25.7-29.8 0-51.8-22.7-51.5-51.7zm234.9-30v-19.3h13v98.5h-13v-19.2c-8.2 13.2-22.2 21.7-39.7 21.7-27.8 0-51-22.5-51-51.7 0-29.3 23.2-51.8 51-51.8 17.5 0 31.5 8.5 39.7 21.8zm-0.2 29.7c0-21.5-17.4-39-38.8-39-21.4 0-38.7 17.5-38.7 39 0 21.6 17.3 39 38.7 39 21.4 0 38.8-17.4 38.8-39zm-113.5-70c-5.3 0-9.5-4.2-9.5-9.5 0-5.2 4.2-9.5 9.5-9.5 5.3 0 9.5 4.3 9.5 9.5 0 5.3-4.2 9.5-9.5 9.5zm-6 20.8h12v99h-12zm204.2 79.2v2.3h-5.3v15.2h-2.2v-15.2h-5.3v-2.3zm18.5 17.5h-2.2v-13.7l-5.8 9.5h-0.2l-5.8-9.5v13.7h-2.2v-17.5h2.5l5.5 9.3 5.5-9.3h2.7z"/>
</svg>